#!OML:ASF F:\VICON\USERDATA\INSTALL\rory3\rory3.ASF
:FULLY-SPECIFIED
:DEGREES
94
root -0.01722207607904791 17.639219185677725 33.87926548916505 -0.661677890142365 -4.709970704637973 -7.826929236752429
lfemur -25.698193517176797 -7.2300644917591885 -8.562263818998016
ltibia 13.113559262452206
lfoot -5.552189246900703 4.210158952864768
ltoes -7.776615132700114
rfemur 6.037935227194145 6.560578519331338 34.90497633087888
rtibia 29.39563951227367
rfoot -13.030176522071415 -4.126450090098907
rtoes 1.9259937627348152
lowerback 9.203923609789431 2.2469385153916113 6.456419796684239
upperback 0.20253024917607704 3.7348916021978726 2.183828127438977
thorax -4.6892277501976105 1.7238041127442814 -2.0390680440607643
lowerneck -15.867776745400846 -2.827854034157593 -1.617834150927175
upperneck 18.95750911813214 -3.8660614475251216 1.277346444101516
head 8.574621295011264 -1.750875479393556 0.1858509886098284
lclavicle -1.3874280457657568e-15 -1.843698599974773e-15
lhumerus -35.30086317319073 10.182506419074617 78.77620501379218
lradius 17.551830744499764
lwrist -1.401112002193559
lhand -27.853903595723345 22.330723542761973
lfingers 7.125019999999999
lthumb -0.9618076975215923 52.73046965259314
rclavicle -1.3874280459134989e-15 -1.843698600111523e-15
rhumerus -26.829489472450543 -19.29195409851179 -79.52354956779463
rradius 24.156955077010142
rwrist -0.15942584110019808
rhand -18.382201896394033 23.481308913759634
rfingers 7.125019999999999
rthumb 7.638404323823176 -6.726798206594051
95
root 0.022259319514202347 17.550743447653467 34.52506713704251 -1.0993635093469316 -4.93810595989218 -7.362203614430408
lfemur -26.491733380960802 -4.773022309732463 -10.701155251891368
ltibia 17.092483046109503
lfoot -7.348961530943084 3.257717568289203
ltoes -5.9785105235156735
rfemur 7.253619960971678 6.42475539599916 33.9469996110691
rtibia 32.18195011863689
rfoot -11.259323175237023 -3.2606835802844416
rtoes 1.0126651336044845
lowerback 9.215987267276729 2.327021430076483 6.044580169748554
upperback 0.19800924750121268 3.7665292230336234 2.0536914464728175
thorax -4.7560934893287605 1.7327195368888344 -1.8687218280140516
lowerneck -15.71701469325945 -2.91440784944901 -1.6570245048367729
upperneck 19.049325602579632 -4.04218661277697 1.4218476099164232
head 8.560298073828157 -1.8131463628144362 0.22013863494890806
lclavicle -1.3874280457574348e-15 -1.843698599966042e-15
lhumerus -35.570529922498835 10.401609863487725 78.66633801788163
lradius 16.923482321507933
lwrist -2.047445036758915
lhand -25.291659845872314 26.406784440807172
lfingers 7.125019999999999
lthumb 1.0746307983148076 56.05103658067423
rclavicle -1.3874280459108686e-15 -1.8436986001082686e-15
rhumerus -27.2243590187872 -19.943462690359805 -79.20547357888961
rradius 23.833848209439022
rwrist 0.24553118076567948
rhand -18.289951534864237 23.58452229743195
rfingers 7.125019999999999
rthumb 7.736096806717124 -6.633831817243001
96
root 0.07430010849135804 17.509610680393745 35.501752173394706 -1.8806998673558104 -4.771214555051447 -6.619264902358273
lfemur -26.822254450082724 -3.8280642682198014 -12.749354847242238
ltibia 22.848985413867993
lfoot -6.535036068064004 1.1009938951913365
ltoes -4.240025223192862
rfemur 7.606293869486185 5.817199902274085 32.60706462048975
rtibia 36.29560859728415
rfoot -8.208370144142688 -2.1276430011162892
rtoes 1.7356924294960319
lowerback 9.394418003959125 2.2908270458226054 5.325485904330761
upperback 0.20146000776264592 3.6385494710813875 1.8672715800034643
thorax -4.832075832659293 1.704368067555777 -1.7174501951636112
lowerneck -15.560632046902917 -2.9995036611788652 -1.7334618897744696
upperneck 19.271605817703144 -4.205691993875844 1.5934622388107416
head 8.584879121980261 -1.8759415495725371 0.2822479483460544
lclavicle -1.3874280457491849e-15 -1.843698599957317e-15
lhumerus -36.070190694830295 10.724028266572262 78.29964749049081
lradius 16.553181481711484
lwrist -2.658513794386533
lhand -26.590582083174773 23.5239993718419
lfingers 7.125019999999999
lthumb 0.05814896249306867 53.716968286943334
rclavicle -1.387428045905645e-15 -1.843698600102294e-15
rhumerus -27.880973802599787 -20.768305473347723 -78.8823176806154
rradius 23.69156651364079
rwrist 0.530708806481635
rhand -18.251344787587925 23.518216183651095
rfingers 7.125019999999999
rthumb 7.8344949710020595 -6.62216610416417
97
root 0.13516242604931872 17.53564506327712 36.5236922029098 -2.8753151073578014 -4.463483458646649 -5.527709951996016
lfemur -25.92148031343612 -3.321280135363196 -14.974295746777194
ltibia 26.87347336766664
lfoot -5.568589791456178 -1.0699288177341773
ltoes -1.4761151374858925
rfemur 6.381102219757404 4.349306970966289 30.516226260853173
rtibia 42.14222471071515
rfoot -3.5202689328136456 -0.9804420997115182
rtoes 4.69756722126346
lowerback 9.598458448986406 2.247367946969686 4.25329142213247
upperback 0.27357588984009723 3.4818514690291655 1.5943548121755018
thorax -4.845620462632735 1.64944150619553 -1.3718507921250642
lowerneck -15.427965692947236 -3.067938696145189 -1.8230230420751579
upperneck 19.53659772854427 -4.318294945410653 1.7061757153654558
head 8.643388788741248 -1.9205603679139422 0.3218355179274039
lclavicle -1.3874280457404906e-15 -1.8436985999482423e-15
lhumerus -36.39097345840361 10.905677544072539 78.0636122058367
lradius 16.808552005929965
lwrist -2.216327795083124
lhand -26.907854381796927 23.56667925275771
lfingers 7.125019999999999
lthumb -0.21886998376801003 53.701148492069976
rclavicle -1.3874280459059974e-15 -1.8436986001014304e-15
rhumerus -28.421068738586786 -21.432506146400534 -79.01334605167547
rradius 23.55433903429153
rwrist 0.7301925727380789
rhand -18.21622838514882 23.31644138554188
rfingers 7.125019999999999
rthumb 7.912255929911185 -6.750086919366774
98
root 0.18187711616001484 17.603100840305185 37.18186035955342 -3.7754519615732827 -4.109772313883274 -4.7439016690305795
lfemur -24.307711414683144 -2.6883067923846085 -16.831444082228526
ltibia 29.623159535393768
lfoot -6.323416013864463 -1.8579081602377963
ltoes 0.17843475781544127
rfemur 3.7178315025741977 2.8455709899786203 28.6994071292538
rtibia 49.56001280683027
rfoot 2.637747550651662 -0.490036193693391
rtoes 10.436786652998823
lowerback 9.818911415358548 2.1493495223392145 3.2705879173470382
upperback 0.3354318680975783 3.266681107342053 1.3132354763352498
thorax -4.988648369544875 1.5556400252937403 -1.0356407833076637
lowerneck -15.333511183617848 -3.093610354350387 -1.9363195173288723
upperneck 19.680977079570614 -4.345470547729988 1.7706055758732269
head 8.69034043786829 -1.936429923222754 0.36079054059129784
lclavicle -1.387428045749381e-15 -1.8436985999551704e-15
lhumerus -36.55325515123805 10.50762686531297 78.12963831896398
lradius 16.981976334664996
lwrist -1.955093047971864
lhand -25.94178773810463 24.17200698732606
lfingers 7.125019999999999
lthumb 0.6689200864636695 54.28649798389794
rclavicle -1.3874280458946766e-15 -1.8436986000895328e-15
rhumerus -29.12740092379452 -22.312799420201554 -78.77703564122068
rradius 23.301890696734546
rwrist 0.9450803807796273
rhand -18.19846507523489 23.203323535882898
rfingers 7.125019999999999
rthumb 7.977660368711982 -6.769309210407963
99
root 0.24920181125465735 17.65814535634303 38.01123408228865 -4.343241890072968 -4.090138660916612 -3.8281283218839053
lfemur -21.699470915088604 -2.147304705016564 -18.440286538816952
ltibia 30.775988486773514
lfoot -7.27596379781665 -0.850405731036975
ltoes 0.546128630794732
rfemur -0.7382245732322836 1.4147254978685369 26.611798024747493
rtibia 58.220232091293504
rfoot 7.641969564122174 -0.708856348680917
rtoes 16.732828766306465
lowerback 9.880214236554066 2.0930902968253555 2.539059915124363
upperback 0.41190271040402404 3.121482618503834 1.0601613365150935
thorax -4.939805914570647 1.514935019086182 -0.8239497605001678
lowerneck -15.316322410815735 -3.054545292521559 -2.0579267903868366
upperneck 19.674541492996454 -4.251178574530462 1.800909979134536
head 8.698579083873167 -1.9085197074267792 0.39785296697778577
lclavicle -1.3874280457403883e-15 -1.843698599945381e-15
lhumerus -36.12919950524498 9.634139513518498 78.53993218562455
lradius 17.9175542628317
lwrist -0.07178189072281649
lhand -24.434834446533994 27.285143491707796
lfingers 7.125019999999999
lthumb 1.7568065990221595 56.636995116884584
rclavicle -1.3874280459005807e-15 -1.8436986000936577e-15
rhumerus -29.701831353021028 -23.317828294481274 -78.37516212108578
rradius 23.122234693255933
rwrist 1.2462224098011498
rhand -18.242481704746623 22.999806357862795
rfingers 7.125019999999999
rthumb 7.946463566243654 -6.928445780055257
100
root 0.2960371692100252 17.74949696715063 37.9015245110995 -4.7078139666558165 -4.244835509920423 -2.8704950886498954
lfemur -18.728595224318106 -2.1334751525427955 -19.969168986209922
ltibia 30.71525642182097
lfoot -9.391988078480598 -0.10636627660545539
ltoes -0.6421949007610657
rfemur -5.863108598630552 0.05811870670107222 24.728322808085107
rtibia 65.98612333154409
rfoot 8.47380860747666 -1.9684945207306832
rtoes 18.095934630412692
lowerback 10.071323470391507 1.9962636178126119 1.7270909129951661
upperback 0.4789563149436616 2.857547759040207 0.8610467556926559
thorax -5.089886312288671 1.4095040510296863 -0.5404792511046412
lowerneck -15.37147138310935 -2.997855682084839 -2.221239986561426
upperneck 19.691827111002983 -4.108356265688857 1.8309923409999027
head 8.72774377834839 -1.8642758387045997 0.4387538407877895
lclavicle -1.3874280457373302e-15 -1.8436985999411926e-15
lhumerus -35.8184999357189 8.402031341530337 78.99979475895881
lradius 19.22520282072507
lwrist 1.2624735373111273
lhand -25.741575243054122 24.24273559757543
lfingers 7.125019999999999
lthumb 0.7608029003328287 54.20506255187728
rclavicle -1.387428045895586e-15 -1.8436986000877527e-15
rhumerus -29.90990760675596 -23.597296473904485 -78.06913594559477
rradius 22.95345318968049
rwrist 1.6746271056231246
rhand -18.265456373940072 22.825907089458852
rfingers 7.125019999999999
rthumb 7.923098455175256 -7.0865023572121135
